<svg xmlns:dc="http://purl.org/dc/elements/1.1/" xmlns:cc="http://creativecommons.org/ns#" xmlns:rdf="http://www.w3.org/1999/02/22-rdf-syntax-ns#" xmlns:svg="http://www.w3.org/2000/svg" xmlns="http://www.w3.org/2000/svg" viewBox="0 0 89.594749 63.946499" height="63.946499" width="89.594749" xml:space="preserve" version="1.1" id="svg2"><metadata id="metadata8"><rdf:RDF><cc:Work rdf:about=""><dc:format>image/svg+xml</dc:format><dc:type rdf:resource="http://purl.org/dc/dcmitype/StillImage"/></cc:Work></rdf:RDF></metadata><defs id="defs6"><clipPath id="clipPath16" clipPathUnits="userSpaceOnUse"><path id="path18" d="m 0,51.157 71.676,0 L 71.676,0 0,0 0,51.157 Z"/></clipPath></defs><g transform="matrix(1.25,0,0,-1.25,0,63.9465)" id="g10"><g id="g12"><g clip-path="url(#clipPath16)" id="g14"><g transform="translate(26.2261,4.4277)" id="g20"><path id="path22" style="fill: #ffc021;fill-opacity:1;fill-rule:evenodd;stroke:none;" d="m 0,0 9.648,9.72 -10.872,10.8 c -5.976,5.976 -5.976,15.768 0,21.744 l -20.52,-20.52 C -27.72,15.768 -27.72,5.976 -21.744,0 -15.768,-5.904 -5.976,-5.904 0,0"/></g><g transform="translate(47.3218,46.1157)" id="g24"><path id="path26" style="fill: #3bc4a1;fill-opacity:1;fill-rule:evenodd;stroke:none;" d="m 0,0 -0.576,0.576 c -5.904,5.832 -15.48,5.976 -21.456,0.288 -0.072,-0.144 -0.144,-0.216 -0.288,-0.288 -5.976,-5.976 -5.976,-15.768 0,-21.744 l 10.872,-10.872 10.872,10.872 C 5.112,-15.336 5.328,-6.048 0,0"/></g><g transform="translate(67.1938,26.0996)" id="g28"><path id="path30" style="fill: #0fa5a5;fill-opacity:1;fill-rule:evenodd;stroke:none;" d="m 0,0 -19.872,20.016 c 5.328,-6.048 5.112,-15.336 -0.576,-21.168 l -10.872,-10.872 9.72,-9.648 c 5.904,-5.904 15.624,-5.904 21.6,0 C 5.976,-15.696 5.976,-5.976 0,0"/></g></g></g></g></svg>